Coordinates
version=1
nRows=29
nColumns=22
inDegrees=yes

Units are S.I. units (second, meters, Newtons, ...)
If the header above contains a line with 'inDegrees', this indicates whether rotational values are in degrees (yes) or radians (no).

endheader
time	pelvis_tilt	pelvis_list	pelvis_rotation	pelvis_tx	pelvis_ty	pelvis_tz	hip_flexion_r	hip_adduction_r	hip_rotation_r	knee_angle_r	ankle_angle_r	subtalar_angle_r	hip_flexion_l	hip_adduction_l	hip_rotation_l	knee_angle_l	ankle_angle_l	subtalar_angle_l	lumbar_extension	lumbar_bending	lumbar_rotation
      2.15000000	      3.67954021	      0.02604884	     32.18165527	      0.29997563	      0.89880601	      0.39143267	    -12.04307703	     -4.29790971	     -9.08194353	    -30.16938564	     -2.04820440	   -163.46916406	     19.06387671	     -5.72612415	    -50.05023651	    -24.20699795	      7.39513223	    -17.40723130	     -7.52864183	     -1.28699085	     15.76881331
      2.16000000	      3.66545158	      0.16472768	     32.97464078	      0.30577007	      0.90013477	      0.38164344	    -11.66190293	     -4.57738901	     -8.51348668	    -31.98338357	     -4.56000043	   -162.67215160	     18.58743874	     -5.12432640	    -49.27410472	    -24.42372945	      7.46410694	    -18.00684639	     -7.32271910	     -1.38136308	     15.26762729
      2.17000000	      3.67900800	      0.24874845	     33.88121144	      0.31133285	      0.90159184	      0.37173438	    -11.17758027	     -4.74734626	     -7.88646793	    -33.88640595	     -7.30009257	   -161.88680094	     18.09780450	     -4.54369270	    -48.34718531	    -24.58784149	      7.56864680	    -18.32400187	     -7.11854705	     -1.39321913	     14.68911575
      2.18000000	      3.72371303	      0.26741514	     34.88281288	      0.31664899	      0.90311459	      0.36182696	    -10.56519826	     -4.79211963	     -7.18539264	    -35.90000308	    -10.19033125	   -161.19720851	     17.60244617	     -4.01270321	    -47.29737324	    -24.70203012	      7.69052815	    -18.39867862	     -6.91865210	     -1.32394069	     14.04941576
      2.19000000	      3.78231444	      0.21632540	     35.94386140	      0.32173143	      0.90460094	      0.35204357	     -9.78734986	     -4.71133762	     -6.36624446	    -38.04020226	    -13.15067471	   -160.60464566	     17.13541618	     -3.56451131	    -46.20417124	    -24.81790915	      7.85937110	    -18.28092842	     -6.70523414	     -1.19113068	     13.39076387
      2.20000000	      3.86760118	      0.12161391	     37.08330038	      0.32652431	      0.90604502	      0.34240070	     -8.87449783	     -4.51586019	     -5.49069326	    -40.30100857	    -16.03141602	   -160.35900365	     16.66619063	     -3.15206234	    -44.99913902	    -24.87417708	      7.99410923	    -18.04463096	     -6.51485434	     -1.01025909	     12.68126315
      2.21000000	      3.94890113	     -0.02294626	     38.23124013	      0.33109806	      0.90732190	      0.33302431	     -7.76495928	     -4.22890269	     -4.53681301	    -42.71836600	    -18.75022455	   -160.33824642	     16.23450839	     -2.81712324	    -43.84475016	    -24.93835758	      8.18418845	    -17.72362948	     -6.31272703	     -0.80742550	     11.99874218
      2.22000000	      4.02311542	     -0.16491085	     39.38810470	      0.33545124	      0.90845365	      0.32387640	     -6.51523694	     -3.89881174	     -3.55292261	    -45.24538050	    -21.19608640	   -160.63315920	     15.79277069	     -2.48831227	    -42.73719610	    -24.95477141	      8.37284889	    -17.40054455	     -6.13417284	     -0.62688352	     11.31379878
      2.23000000	      4.06763275	     -0.30278832	     40.52873669	      0.33960253	      0.90936203	      0.31500054	     -5.10534893	     -3.56168857	     -2.59455660	    -47.87133703	    -23.28125936	   -161.24414619	     15.36883089	     -2.16307866	    -41.70062222	    -24.95415386	      8.61833132	    -17.07431142	     -5.96294100	     -0.48997351	     10.68507688
      2.24000000	      4.07805358	     -0.39193848	     41.64820782	      0.34358553	      0.91010200	      0.30632711	     -3.60498897	     -3.26459186	     -1.68579417	    -50.51212084	    -24.95082786	   -162.13948251	     14.90944468	     -1.78118533	    -40.74812814	    -24.87894618	      8.86702414	    -16.79233837	     -5.82276970	     -0.43167540	     10.07354552
      2.25000000	      4.05540373	     -0.41455714	     42.72959835	      0.34740627	      0.91068255	      0.29782569	     -2.04758714	     -3.04516893	     -0.85534436	    -53.11851043	    -26.15164149	   -163.27943872	     14.40154807	     -1.33288553	    -39.87732343	    -24.74903353	      9.16656020	    -16.54669060	     -5.73064977	     -0.46004054	      9.54100400
      2.26000000	      4.02122345	     -0.36217041	     43.78344135	      0.35110359	      0.91119314	      0.28941788	     -0.50634999	     -2.89117157	     -0.09724626	    -55.59827807	    -26.90993694	   -164.47353193	     13.80653677	     -0.81838252	    -39.07308336	    -24.53917338	      9.48765079	    -16.34053130	     -5.70279080	     -0.55726210	      9.03815750
      2.27000000	      3.96843138	     -0.25345872	     44.84513929	      0.35461519	      0.91163314	      0.28106116	      1.01402793	     -2.80318250	      0.55427887	    -57.91200616	    -27.25055486	   -165.51458852	     13.16302795	     -0.24487728	    -38.25851682	    -24.28185194	      9.77879295	    -16.14201142	     -5.72581660	     -0.70486228	      8.55009835
      2.28000000	      3.92539323	     -0.09642271	     45.91799558	      0.35796301	      0.91206689	      0.27270322	      2.46945618	     -2.75888184	      1.10536475	    -60.01116054	    -27.23051287	   -166.32577056	     12.45330924	      0.35568209	    -37.42376780	    -23.98823368	     10.07041190	    -15.94362653	     -5.80567887	     -0.86726777	      8.06882475
      2.29000000	      3.89816691	      0.09313375	     47.01939921	      0.36112193	      0.91251552	      0.26431718	      3.85357276	     -2.75075055	      1.54473834	    -61.87362431	    -26.91549369	   -166.88813108	     11.69274757	      0.96050263	    -36.54438978	    -23.67887546	     10.37277862	    -15.73326198	     -5.93340533	     -1.01817288	      7.57215710
      2.30000000	      3.89945218	      0.30613728	     48.17255425	      0.36405250	      0.91300367	      0.25590475	      5.15414835	     -2.76631887	      1.86020978	    -63.48524639	    -26.36634117	   -167.13731208	     10.89206381	      1.55032262	    -35.56924895	    -23.37325221	     10.64798012	    -15.52044517	     -6.11321671	     -1.13734252	      7.05972977
      2.31000000	      3.93692571	      0.52631387	     49.38586263	      0.36673484	      0.91354658	      0.24748510	      6.37345500	     -2.78777116	      2.06065949	    -64.83533824	    -25.63958760	   -167.15975242	     10.06448272	      2.09855366	    -34.50217827	    -23.08295671	     10.89070423	    -15.33036335	     -6.33720187	     -1.20103131	      6.51575457
      2.32000000	      3.98248900	      0.75090341	     50.66364083	      0.36916567	      0.91409042	      0.23910788	      7.54566786	     -2.84492664	      2.14418226	    -65.94599787	    -24.77345512	   -167.09912049	      9.24484820	      2.60920971	    -33.37583173	    -22.83995086	     11.14883514	    -15.13767929	     -6.58389158	     -1.23938787	      5.92724157
      2.33000000	      4.03461053	      0.95985928	     52.00354399	      0.37133153	      0.91465474	      0.23081221	      8.68791760	     -2.91699190	      2.14027597	    -66.80775501	    -23.84128325	   -167.00563295	      8.43593931	      3.08705253	    -32.13751307	    -22.59019170	     11.33249905	    -14.94390711	     -6.83624898	     -1.23614039	      5.32067625
      2.34000000	      4.08734197	      1.15362641	     53.41072073	      0.37324743	      0.91522890	      0.22261867	      9.80414738	     -3.01074217	      2.05043363	    -67.42453716	    -22.87337523	   -166.92659987	      7.63679906	      3.53466051	    -30.79628412	    -22.32636968	     11.43861287	    -14.73893876	     -7.08860350	     -1.20160870	      4.68050070
      2.35000000	      4.14137671	      1.33655166	     54.85767755	      0.37496968	      0.91577549	      0.21458367	     10.89316373	     -3.11678919	      1.91747281	    -67.80927433	    -21.77116543	   -166.87305639	      6.85224221	      3.93344640	    -29.44058325	    -22.08184502	     11.56417638	    -14.56628144	     -7.34672617	     -1.14610534	      4.01940695
      2.36000000	      4.18541843	      1.50494787	     56.33264511	      0.37652960	      0.91628197	      0.20670398	     11.96622496	     -3.23946871	      1.76001870	    -67.96717144	    -20.57158044	   -166.87858423	      6.07916863	      4.29984792	    -28.05895582	    -21.82393701	     11.67125289	    -14.41019510	     -7.59574018	     -1.08060905	      3.35449228
      2.37000000	      4.21652286	      1.65920528	     57.81645233	      0.37797481	      0.91673204	      0.19898335	     13.02456972	     -3.37337520	      1.60360334	    -67.90403203	    -19.27829659	   -166.95938264	      5.31492163	      4.63473834	    -26.67956158	    -21.54885076	     11.76891175	    -14.26209327	     -7.83205522	     -1.01266433	      2.69791693
      2.38000000	      4.23501281	      1.80027234	     59.29887598	      0.37935633	      0.91711754	      0.19138671	     14.06183608	     -3.51419667	      1.45878532	    -67.62617465	    -17.90666883	   -167.13679870	      4.55309985	      4.93842964	    -25.31014073	    -21.25310411	     11.86391486	    -14.10944359	     -8.04718993	     -0.94628664	      2.05826424
      2.39000000	      4.24169063	      1.92713312	     60.76777826	      0.38071533	      0.91743302	      0.18390251	     15.07462975	     -3.65529383	      1.33679885	    -67.13409149	    -16.47846164	   -167.45308150	      3.79335417	      5.20612273	    -23.97983105	    -20.93878241	     11.97057882	    -13.93503027	     -8.24096417	     -0.88319891	      1.43467166
      2.40000000	      4.23164080	      2.02955074	     62.22749609	      0.38208005	      0.91766943	      0.17653407	     16.07358890	     -3.78838570	      1.23376852	    -66.43797652	    -15.07218278	   -167.77712258	      3.05777821	      5.43572313	    -22.66933921	    -20.62338656	     12.08431957	    -13.74927164	     -8.40112929	     -0.83184623	      0.82281295
      2.41000000	      4.21115634	      2.12048825	     63.66282784	      0.38347801	      0.91784993	      0.16923630	     17.03286599	     -3.92214738	      1.14361419	    -65.53135177	    -13.67854762	   -168.28574357	      2.32331313	      5.62824231	    -21.41965362	    -20.29472005	     12.22470435	    -13.50529704	     -8.54055507	     -0.78993305	      0.22872339
      2.42000000	      4.16945720	      2.19686596	     65.08821913	      0.38489587	      0.91796180	      0.16204137	     17.96340299	     -4.05523716	      1.06643595	    -64.43169286	    -12.39510658	   -168.75405787	      1.61823458	      5.79505988	    -20.16196648	    -19.98482179	     12.37269052	    -13.23444700	     -8.65921955	     -0.77315328	     -0.36478817
      2.43000000	      4.11277676	      2.26962020	     66.48907912	      0.38635496	      0.91802271	      0.15487220	     18.83801820	     -4.20081600	      0.97658417	    -63.13285882	    -11.20779137	   -169.30217536	      0.91242181	      5.93731411	    -18.95482204	    -19.66888031	     12.54376479	    -12.89998585	     -8.75817349	     -0.77625717	     -0.94133520
